<svg width="84" height="71" viewBox="0 0 84 71" fill="none" xmlns="http://www.w3.org/2000/svg">
<path id="Vector" d="M38.8826 69.6034C35.7628 65.6742 30.555 61.4718 25.5114 58.813C20.4188 56.128 15.5816 54.6368 10.0896 54.0602C9.00672 53.9475 8.10897 53.8424 8.09462 53.8274C8.08062 53.8274 8.10862 41.7005 8.16462 26.9126L8.25702 0.0262795L9.2569 0.131397C15.3965 0.784634 22.249 3.27294 27.4338 6.7411C31.9021 9.72946 36.5163 14.3442 39.458 18.7659L40.1983 19.8786V45.4179C40.1983 59.464 40.1423 70.9542 40.0751 70.9519C40.0051 70.9497 39.4693 70.3423 38.8826 69.6034ZM43.9685 45.3534V19.7075L45.3982 17.6584C47.2236 15.0424 50.8953 11.1013 53.3231 9.15281C59.8131 3.94269 66.8532 0.998624 74.9355 0.112626L75.9608 0V26.9238V53.8484L74.7714 53.9686C63.5174 55.0918 53.7607 60.0722 46.1293 68.5883L43.9685 71V45.3534ZM50.9413 69.2565C55.3584 64.8115 61.2058 61.2795 67.0795 59.5068C70.1533 58.5795 74.1504 57.9323 76.8038 57.9323C78.195 57.9323 78.9667 57.6094 79.402 56.8428C79.7296 56.2646 79.7331 56.0161 79.7338 34.1995L79.7343 12.1382L80.3496 12.2583C80.6877 12.3334 81.6477 12.6187 82.4824 12.904L84 13.4221V40.9549C84 56.098 83.944 68.4877 83.8747 68.4877C83.8047 68.4877 82.7905 68.2549 81.6188 67.9696C76.9888 66.8508 73.1758 66.4664 68.1681 66.6113C62.0941 66.7915 57.3735 67.7 51.7618 69.7799L49.629 70.5705L50.9413 69.2565ZM32.238 69.6845C29.9076 68.7895 26.0588 67.7346 23.4606 67.2796C19.9279 66.6639 17.4906 66.5002 13.1608 66.6038C8.85874 66.7014 6.25655 67.0243 2.7067 67.8885C1.7141 68.1288 0.698952 68.3765 0.450801 68.4291L0 68.5342L0.000770214 40.9279L0.00160969 13.3208L1.92865 12.7201C2.98845 12.3897 3.94794 12.0819 4.06071 12.0443C4.22381 11.9692 4.26581 16.4668 4.26581 34.0809C4.26581 58.1508 4.21681 56.809 5.17428 57.484C5.50748 57.7168 6.19978 57.8219 8.1768 57.9495C16.034 58.4301 23.4895 61.26 29.576 66.0752C30.8885 67.1136 34.0385 69.9653 34.219 70.2784C34.345 70.4962 34.261 70.4737 32.2385 69.6928L32.238 69.6845Z" fill="#15A950"/>
</svg>
