<svg width="141" height="138" viewBox="0 0 141 138" fill="none" xmlns="http://www.w3.org/2000/svg">
<g id="libre-book logo">
<path id="Vector" d="M66.0148 113.771C61.5261 108.613 54.0333 103.096 46.7768 99.6055C39.4496 96.0806 32.49 94.123 24.5882 93.3659C23.0303 93.2181 21.7386 93.0801 21.718 93.0604C21.6978 93.0604 21.7381 77.1401 21.8187 57.7265L21.9516 22.43L23.3902 22.568C32.2237 23.4256 42.0829 26.6922 49.5426 31.2452C55.9715 35.1684 62.6102 41.2266 66.8427 47.0315L67.9078 48.4923V82.0204C67.9078 100.46 67.8273 115.545 67.7306 115.542C67.6299 115.539 66.859 114.741 66.0148 113.771ZM73.3323 81.9356V48.2675L75.3893 45.5775C78.0156 42.1433 83.2983 36.9693 86.7914 34.4114C96.129 27.5715 106.258 23.7065 117.887 22.5434L119.362 22.3955V57.7412V93.088L117.651 93.2457C101.459 94.7203 87.421 101.259 76.4412 112.439L73.3323 115.605V81.9356ZM83.3645 113.316C89.7196 107.48 98.1327 102.844 106.584 100.516C111.006 99.299 116.757 98.4493 120.575 98.4493C122.576 98.4493 123.687 98.0254 124.313 97.019C124.784 96.26 124.789 95.9337 124.79 67.2928L124.791 38.3306L125.676 38.4883C126.163 38.5868 127.544 38.9614 128.745 39.336L130.928 40.0161V76.1613C130.928 96.0412 130.848 112.306 130.748 112.306C130.647 112.306 129.188 112.001 127.502 111.626C120.841 110.158 115.355 109.653 108.15 109.843C99.4108 110.08 92.6189 111.272 84.545 114.003L81.4764 115.041L83.3645 113.316ZM56.4548 113.878C53.1018 112.703 47.5644 111.318 43.8261 110.72C38.7433 109.912 35.2366 109.697 29.007 109.833C22.8174 109.961 19.0734 110.385 13.966 111.52C12.5378 111.835 11.0773 112.161 10.7203 112.23L10.0717 112.368L10.0728 76.1258L10.074 39.8831L12.8465 39.0945C14.3713 38.6608 15.7518 38.2566 15.9141 38.2073C16.1488 38.1088 16.2092 44.0132 16.2092 67.1371C16.2092 98.7361 16.1387 96.9746 17.5163 97.8608C17.9957 98.1664 18.9917 98.3044 21.8362 98.4719C33.141 99.1028 43.8676 102.818 52.6247 109.139C54.5131 110.503 59.0452 114.246 59.3049 114.657C59.4862 114.943 59.3654 114.914 56.4555 113.889L56.4548 113.878Z" fill="black"/>
</g>
</svg>
