<svg width="31" height="28" viewBox="0 0 31 28" fill="none" xmlns="http://www.w3.org/2000/svg">
<g id="Facebook logo" clip-path="url(#clip0_18_19)">
<path id="Vector" d="M15.4163 27.5881C23.8602 27.549 30.6768 21.3575 30.6417 13.7588C30.6066 6.16007 23.733 0.0317499 15.2891 0.0707687C6.8452 0.109787 0.0285258 6.30137 0.0636389 13.9001C0.098752 21.4987 6.97235 27.6271 15.4163 27.5881Z" fill="#3C5A9A"/>
<path id="Vector_2" d="M20.2799 4.27094L16.893 4.28659C14.8831 4.29588 12.651 5.06693 12.6631 7.68873C12.6772 8.60223 12.6714 9.47717 12.676 10.4618L10.3508 10.4726L10.3662 13.8022L12.7633 13.7912L12.8076 23.3768L17.2124 23.3564L17.1679 13.7076L20.0752 13.6941L20.3231 10.4171L17.0768 10.4321C17.0768 10.4321 17.0774 8.9749 17.0681 8.55175C17.0633 7.51568 18.2616 7.56947 18.3337 7.56914C18.9037 7.5665 20.0122 7.56288 20.2967 7.56007L20.2815 4.27093L20.2799 4.27094Z" fill="white"/>
</g>
<defs>
<clipPath id="clip0_18_19">
<rect width="30.5784" height="27.5176" fill="white" transform="translate(0 0.141357) rotate(-0.264759)"/>
</clipPath>
</defs>
</svg>
