<svg width="22" height="32" viewBox="0 0 22 32" fill="none" xmlns="http://www.w3.org/2000/svg">
<path id="Vector" d="M6.11111 14.4817H15.8889V10.2989C15.8889 8.75942 15.4115 7.44503 14.4566 6.35576C13.5017 5.26649 12.3495 4.72186 11 4.72186C9.65046 4.72186 8.49826 5.26649 7.54341 6.35576C6.58854 7.44503 6.11111 8.75942 6.11111 10.2989V14.4817ZM22 16.5731V29.1215C22 29.7024 21.8218 30.1962 21.4653 30.6029C21.1088 31.0096 20.6759 31.2129 20.1667 31.2129H1.83333C1.32407 31.2129 0.891203 31.0096 0.534731 30.6029C0.178244 30.1962 0 29.7024 0 29.1215V16.5731C0 15.9922 0.178244 15.4984 0.534731 15.0917C0.891203 14.685 1.32407 14.4817 1.83333 14.4817H2.44445V10.2989C2.44445 7.62658 3.28472 5.33185 4.96528 3.41473C6.64584 1.49762 8.65741 0.539062 11 0.539062C13.3426 0.539062 15.3542 1.49762 17.0347 3.41473C18.7153 5.33185 19.5556 7.62658 19.5556 10.2989V14.4817H20.1667C20.6759 14.4817 21.1088 14.685 21.4653 15.0917C21.8218 15.4984 22 15.9922 22 16.5731Z" fill="#37C871"/>
</svg>
