<svg width="12" height="10" viewBox="0 0 12 10" fill="none" xmlns="http://www.w3.org/2000/svg">
<path id="Vector" d="M12 3.18659V8.62297C12 8.92424 11.8951 9.18214 11.6853 9.39667C11.4755 9.6112 11.2232 9.71847 10.9286 9.71847H1.07143C0.776786 9.71847 0.524553 9.6112 0.314732 9.39667C0.104911 9.18214 0 8.92424 0 8.62297V3.18659C0.196429 3.41025 0.421875 3.60881 0.676339 3.78227C2.29241 4.90515 3.40179 5.69253 4.00446 6.14442C4.25893 6.33613 4.4654 6.48562 4.62388 6.59289C4.78237 6.70016 4.99331 6.80971 5.2567 6.92154C5.52009 7.03337 5.76563 7.08928 5.9933 7.08928H6.0067C6.23437 7.08928 6.47991 7.03337 6.7433 6.92154C7.00669 6.80971 7.21763 6.70016 7.37612 6.59289C7.5346 6.48562 7.74107 6.33613 7.99554 6.14442C8.75447 5.58298 9.86607 4.79559 11.3304 3.78227C11.5848 3.60425 11.808 3.40569 12 3.18659ZM12 1.17362C12 1.53422 11.8906 1.87885 11.6719 2.20749C11.4531 2.53614 11.1808 2.81686 10.8549 3.04965C9.17634 4.241 8.13169 4.98274 7.72098 5.27487C7.67631 5.30684 7.58145 5.37645 7.43638 5.4837C7.29129 5.59097 7.17076 5.6777 7.07478 5.74388C6.97879 5.81006 6.86272 5.88424 6.72656 5.96641C6.5904 6.04856 6.46205 6.11018 6.34152 6.15127C6.22098 6.19237 6.10937 6.21292 6.0067 6.21292H5.9933C5.89063 6.21292 5.77902 6.19237 5.65848 6.15127C5.53795 6.11016 5.4096 6.04854 5.27344 5.96641C5.13728 5.88424 5.02121 5.81006 4.92522 5.74388C4.82924 5.67769 4.70871 5.59097 4.56362 5.4837C4.41853 5.37643 4.32366 5.30682 4.27902 5.27487C3.87277 4.98274 3.28794 4.56623 2.52455 4.02533C1.76116 3.48442 1.30357 3.1592 1.15179 3.04965C0.875001 2.85794 0.613839 2.59434 0.368304 2.25884C0.122768 1.92334 0 1.61181 0 1.32425C0 0.968215 0.092634 0.671517 0.277902 0.434156C0.46317 0.196802 0.727679 0.078125 1.07143 0.078125H10.9286C11.2188 0.078125 11.4699 0.185391 11.6819 0.399924C11.894 0.614457 12 0.872356 12 1.17362Z" fill="#15A950"/>
</svg>
