<svg width="12" height="13" viewBox="0 0 12 13" fill="none" xmlns="http://www.w3.org/2000/svg">
<path id="Vector" d="M11.3333 8.57618C10.5303 8.57616 9.73215 8.44976 8.96678 8.20142C8.73338 8.13317 8.46678 8.16713 8.30016 8.37182L6.83331 9.87126C4.93325 8.88305 3.40006 7.3151 2.43325 5.37233L3.90009 3.87293C4.06672 3.70253 4.13328 3.42994 4.06672 3.1913C3.79994 2.40748 3.66666 1.58936 3.66666 0.737294C3.66666 0.36253 3.36669 0.0556641 3 0.0556641H0.666656C0.299969 0.0556641 0 0.36253 0 0.737294C0 7.14464 5.06675 12.3252 11.3333 12.3252C11.6999 12.3252 12 12.0183 12 11.6436V9.25781C12 8.88305 11.6999 8.57618 11.3333 8.57618Z" fill="#15A950"/>
</svg>
