<svg width="11" height="11" viewBox="0 0 11 11" fill="none" xmlns="http://www.w3.org/2000/svg">
<g id="WA_Logo">
<g id="Group">
<path id="Vector" fill-rule="evenodd" clip-rule="evenodd" d="M8.67419 2.1439C7.73817 1.27372 6.49338 0.794294 5.16718 0.793762C2.43453 0.793762 0.21046 2.85883 0.209363 5.39709C0.209029 6.20845 0.437275 7.00041 0.871155 7.6986L0.167816 10.0841L2.796 9.44397C3.52014 9.81071 4.33543 10.0041 5.16517 10.0043H5.16722C7.89958 10.0043 10.1238 7.93898 10.125 5.40068C10.1255 4.17066 9.61021 3.01404 8.67419 2.1439ZM5.16722 9.22684H5.16555C4.42615 9.22658 3.70092 9.0421 3.06827 8.69347L2.91778 8.61059L1.35817 8.99045L1.77445 7.57848L1.67648 7.43364C1.26401 6.82448 1.04612 6.12035 1.04645 5.39731C1.04736 3.28764 2.89588 1.57128 5.16889 1.57128C6.26948 1.57164 7.30414 1.97014 8.08213 2.69345C8.86012 3.41671 9.28828 4.37804 9.28785 5.40046C9.28694 7.51031 7.43842 9.22684 5.16722 9.22684ZM7.4275 6.36104C7.30362 6.3035 6.69463 6.02521 6.58106 5.98681C6.46753 5.94849 6.38491 5.92927 6.30234 6.04443C6.21977 6.1596 5.98232 6.41866 5.91006 6.49547C5.83779 6.57218 5.76553 6.58184 5.6417 6.52422C5.51777 6.46668 5.11866 6.34518 4.64548 5.95328C4.27723 5.64828 4.02862 5.27161 3.95635 5.1564C3.88409 5.04124 3.94863 4.97901 4.01069 4.92165C4.0664 4.87009 4.13456 4.78726 4.19653 4.72012C4.25849 4.65297 4.27909 4.60495 4.3204 4.52819C4.36171 4.45143 4.34106 4.38424 4.31005 4.32671C4.27909 4.26908 4.03134 3.70288 3.92812 3.47256C3.82756 3.2483 3.72544 3.27864 3.6494 3.2751C3.57723 3.27178 3.49457 3.27103 3.41195 3.27103C3.32938 3.27103 3.1952 3.29982 3.08163 3.41498C2.9681 3.53014 2.64808 3.80843 2.64808 4.37463C2.64808 4.94083 3.09193 5.48776 3.15389 5.56456C3.21581 5.64132 4.02743 6.80317 5.27007 7.30147C5.56557 7.42 5.79634 7.49073 5.97627 7.5438C6.27306 7.63136 6.54309 7.61896 6.7565 7.58937C6.99452 7.55633 7.48941 7.31108 7.59263 7.0424C7.69586 6.77367 7.69586 6.54335 7.6649 6.49538C7.63394 6.44746 7.55137 6.41866 7.4275 6.36104Z" fill="white"/>
</g>
</g>
</svg>
