<svg width="31" height="28" viewBox="0 0 31 28" fill="none" xmlns="http://www.w3.org/2000/svg">
<g id="Facebook logo" clip-path="url(#clip0_159_83)">
<path id="Vector" d="M15.4163 27.588C23.8602 27.549 30.6768 21.3574 30.6417 13.7587C30.6066 6.16001 23.733 0.0316889 15.2891 0.0707077C6.8452 0.109726 0.0285258 6.30131 0.0636389 13.9C0.098752 21.4987 6.97235 27.627 15.4163 27.588Z" fill="#3C5A9A"/>
<path id="Vector_2" d="M20.2799 4.27088L16.893 4.28653C14.8831 4.29582 12.651 5.06687 12.6631 7.68867C12.6772 8.60216 12.6714 9.47711 12.676 10.4618L10.3508 10.4725L10.3662 13.8022L12.7633 13.7911L12.8076 23.3767L17.2124 23.3563L17.1679 13.7075L20.0752 13.6941L20.3231 10.4171L17.0768 10.4321C17.0768 10.4321 17.0774 8.97484 17.0681 8.55169C17.0633 7.51561 18.2616 7.56941 18.3337 7.56908C18.9037 7.56644 20.0122 7.56282 20.2967 7.56001L20.2815 4.27087L20.2799 4.27088Z" fill="white"/>
</g>
<defs>
<clipPath id="clip0_159_83">
<rect width="30.5784" height="27.5176" fill="white" transform="translate(0 0.141357) rotate(-0.264759)"/>
</clipPath>
</defs>
</svg>
