<svg width="26" height="27" viewBox="0 0 26 27" fill="none" xmlns="http://www.w3.org/2000/svg">
<g id="Group">
<g id="Group_2">
<path id="XMLID_30_" d="M13 27C20.1797 27 26 20.9558 26 13.5C26 6.04416 20.1797 0 13 0C5.8203 0 0 6.04416 0 13.5C0 20.9558 5.8203 27 13 27Z" fill="#DC4E41"/>
</g>
<g id="Group_3">
<path id="Vector" d="M4.52606 14.1047C4.47994 16.4275 6.02053 18.6441 8.13977 19.367C10.136 20.0635 12.5903 19.5425 13.9186 17.7672C14.8884 16.5233 15.1088 14.865 15.0038 13.3156C13.2943 13.2998 11.5848 13.3051 9.8778 13.3077C9.87502 13.9401 9.8778 14.5702 9.88035 15.2026C10.9039 15.2319 11.9277 15.2185 12.9513 15.2399C12.6929 16.1594 12.1043 17.0152 11.211 17.3473C9.48616 18.1366 7.28535 17.1054 6.74263 15.2264C6.0875 13.4271 7.15998 11.2557 8.93069 10.7323C10.0287 10.3311 11.1598 10.7828 12.0992 11.3755C12.5752 10.913 13.0206 10.4187 13.4581 9.91911C12.3908 8.99164 11.0191 8.42299 9.60898 8.54788C6.84227 8.58206 4.42108 11.2345 4.52606 14.1047Z" fill="#DC4E41"/>
<path id="Vector_2" d="M18.3309 11.7124C18.3258 12.2414 18.3205 12.7729 18.3179 13.3017C17.806 13.307 17.2969 13.3096 16.7875 13.3122C16.7875 13.8412 16.7875 14.3673 16.7875 14.8962C17.2969 14.8989 17.8088 14.9015 18.3179 14.907C18.323 15.436 18.323 15.9647 18.3281 16.4963C18.8349 16.4963 19.3443 16.4936 19.8534 16.4963C19.8562 15.9647 19.8585 15.436 19.8638 14.9044C20.373 14.9017 20.8849 14.8991 21.3942 14.8964C21.3942 14.3675 21.3942 13.8414 21.3942 13.3125C20.8851 13.3098 20.3732 13.3072 19.8638 13.3019C19.8611 12.7729 19.8562 12.2414 19.8534 11.7126C19.3443 11.7124 18.8375 11.7124 18.3309 11.7124Z" fill="#DC4E41"/>
<g id="Group_4">
<path id="Vector_3" d="M4.52606 14.1045C4.42108 11.2343 6.84204 8.58181 9.60875 8.5474C11.0189 8.4225 12.3908 8.99115 13.4579 9.91862C13.0202 10.4185 12.5748 10.9125 12.099 11.375C11.1595 10.7823 10.0284 10.3306 8.93046 10.7318C7.15952 11.2554 6.08704 13.4268 6.74239 15.2259C7.28512 17.1049 9.48593 18.1361 11.2108 17.3468C12.1039 17.0147 12.6927 16.1589 12.9511 15.2394C11.9275 15.2182 10.9037 15.2315 9.88012 15.2021C9.87757 14.5697 9.87502 13.9396 9.87757 13.3072C11.5845 13.3046 13.2941 13.2993 15.0036 13.3152C15.1086 14.8647 14.8884 16.523 13.9184 17.7667C12.5901 19.542 10.136 20.063 8.13954 19.3666C6.02076 18.6439 4.47994 16.4272 4.52606 14.1045Z" fill="white"/>
<path id="Vector_4" d="M18.3309 11.7124C18.8377 11.7124 19.3443 11.7124 19.8534 11.7124C19.8562 12.2414 19.8611 12.7729 19.8638 13.3017C20.373 13.307 20.8849 13.3096 21.3942 13.3122C21.3942 13.8412 21.3942 14.3673 21.3942 14.8962C20.8851 14.8989 20.3732 14.9015 19.8638 14.9041C19.8588 15.4357 19.8562 15.9645 19.8534 16.496C19.3443 16.4934 18.8347 16.496 18.3281 16.496C18.3233 15.9645 18.3233 15.4357 18.3179 14.9068C17.8088 14.9013 17.2969 14.8989 16.7875 14.896C16.7875 14.367 16.7875 13.841 16.7875 13.312C17.2969 13.3094 17.8063 13.3067 18.3179 13.3014C18.3205 12.7729 18.3256 12.2414 18.3309 11.7124Z" fill="white"/>
</g>
</g>
</g>
</svg>
