<svg width="12" height="17" viewBox="0 0 12 17" fill="none" xmlns="http://www.w3.org/2000/svg">
<path id="Vector" d="M6.00001 3.24249e-05C9.32572 3.24249e-05 12 2.38124 12 5.305C12 10.3688 6.00001 17 6.00001 17C6.00001 17 1.04904e-05 10.3688 1.04904e-05 5.305C1.04904e-05 2.38124 2.6743 3.24249e-05 6.00001 3.24249e-05ZM6.00001 7.8972C7.57715 7.8972 8.84572 6.78195 8.84572 5.39542C8.84572 4.0089 7.57715 2.86351 6.00001 2.86351C4.42287 2.86351 3.1543 4.0089 3.1543 5.39542C3.1543 6.78195 4.42287 7.8972 6.00001 7.8972Z" fill="#15A950"/>
</svg>
