<svg width="22" height="30" viewBox="0 0 22 30" fill="none" xmlns="http://www.w3.org/2000/svg">
<path id="Vector" d="M6.11111 13.6364H15.8889V9.54545C15.8889 8.03977 15.4115 6.75426 14.4566 5.68892C13.5017 4.62358 12.3495 4.09091 11 4.09091C9.65046 4.09091 8.49826 4.62358 7.54341 5.68892C6.58854 6.75426 6.11111 8.03977 6.11111 9.54545V13.6364ZM22 15.6818V27.9545C22 28.5227 21.8218 29.0057 21.4653 29.4034C21.1088 29.8011 20.6759 30 20.1667 30H1.83333C1.32407 30 0.891203 29.8011 0.534731 29.4034C0.178244 29.0057 0 28.5227 0 27.9545V15.6818C0 15.1136 0.178244 14.6307 0.534731 14.233C0.891203 13.8352 1.32407 13.6364 1.83333 13.6364H2.44445V9.54545C2.44445 6.93182 3.28472 4.6875 4.96528 2.8125C6.64584 0.9375 8.65741 0 11 0C13.3426 0 15.3542 0.9375 17.0347 2.8125C18.7153 4.6875 19.5556 6.93182 19.5556 9.54545V13.6364H20.1667C20.6759 13.6364 21.1088 13.8352 21.4653 14.233C21.8218 14.6307 22 15.1136 22 15.6818Z" fill="#37C871"/>
</svg>
