<svg width="12" height="10" viewBox="0 0 12 10" fill="none" xmlns="http://www.w3.org/2000/svg">
<path id="Vector" d="M12 3.04018V8.35714C12 8.65179 11.8951 8.90402 11.6853 9.11384C11.4755 9.32366 11.2232 9.42857 10.9286 9.42857H1.07143C0.776786 9.42857 0.524553 9.32366 0.314732 9.11384C0.104911 8.90402 0 8.65179 0 8.35714V3.04018C0.196429 3.25893 0.421875 3.45312 0.676339 3.62277C2.29241 4.72098 3.40179 5.49107 4.00446 5.93303C4.25893 6.12053 4.4654 6.26674 4.62388 6.37165C4.78237 6.47656 4.99331 6.58371 5.2567 6.69308C5.52009 6.80245 5.76563 6.85714 5.9933 6.85714H6.0067C6.23437 6.85714 6.47991 6.80245 6.7433 6.69308C7.00669 6.58371 7.21763 6.47656 7.37612 6.37165C7.5346 6.26674 7.74107 6.12053 7.99554 5.93303C8.75447 5.38392 9.86607 4.61384 11.3304 3.62277C11.5848 3.44866 11.808 3.25447 12 3.04018ZM12 1.07143C12 1.42411 11.8906 1.76116 11.6719 2.08259C11.4531 2.40402 11.1808 2.67857 10.8549 2.90625C9.17634 4.07143 8.13169 4.79688 7.72098 5.08259C7.67631 5.11386 7.58145 5.18194 7.43638 5.28683C7.29129 5.39174 7.17076 5.47656 7.07478 5.54129C6.97879 5.60602 6.86272 5.67857 6.72656 5.75893C6.5904 5.83928 6.46205 5.89955 6.34152 5.93973C6.22098 5.97993 6.10937 6.00003 6.0067 6.00003H5.9933C5.89063 6.00003 5.77902 5.97993 5.65848 5.93973C5.53795 5.89953 5.4096 5.83926 5.27344 5.75893C5.13728 5.67857 5.02121 5.60602 4.92522 5.54129C4.82924 5.47656 4.70871 5.39174 4.56362 5.28683C4.41853 5.18192 4.32366 5.11384 4.27902 5.08259C3.87277 4.79688 3.28794 4.38951 2.52455 3.86049C1.76116 3.33147 1.30357 3.01339 1.15179 2.90625C0.875001 2.71875 0.613839 2.46094 0.368304 2.13281C0.122768 1.80468 0 1.5 0 1.21875C0 0.870537 0.092634 0.580357 0.277902 0.34821C0.46317 0.11607 0.727679 0 1.07143 0H10.9286C11.2188 0 11.4699 0.10491 11.6819 0.31473C11.894 0.52455 12 0.776783 12 1.07143Z" fill="#15A950"/>
</svg>
