<svg width="30" height="25" viewBox="0 0 30 25" fill="none" xmlns="http://www.w3.org/2000/svg">
<path id="Vector" d="M9.43441 25C20.7552 25 26.9471 15.3808 26.9471 7.0392C26.9471 6.7659 26.9471 6.49392 26.9292 6.22194C28.1337 5.32873 29.1735 4.22276 30 2.95577C28.8767 3.46628 27.685 3.80108 26.4648 3.94898C27.7497 3.1601 28.7113 1.91934 29.1708 0.457587C27.9626 1.19285 26.6407 1.71101 25.2623 1.98971C24.3343 0.977717 23.107 0.307606 21.7702 0.0830764C20.4334 -0.141453 19.0618 0.0921178 17.8675 0.747644C16.6732 1.40317 15.7228 2.44411 15.1635 3.70938C14.6041 4.97465 14.467 6.39371 14.7732 7.74697C12.3261 7.62114 9.93219 6.96893 7.7468 5.83268C5.56141 4.69643 3.63344 3.10153 2.08805 1.15154C1.30096 2.54118 1.05987 4.18624 1.41388 5.75178C1.76789 7.31732 2.69037 8.68563 3.99352 9.57812C3.01403 9.54834 2.05591 9.27735 1.2 8.78802V8.86795C1.20037 10.3254 1.6923 11.7378 2.59233 12.8657C3.49237 13.9935 4.7451 14.7674 6.13805 15.056C5.23188 15.3094 4.28113 15.3464 3.35883 15.1642C3.75213 16.4185 4.51785 17.5154 5.5489 18.3014C6.57995 19.0874 7.82475 19.5233 9.10922 19.548C6.92969 21.3048 4.23727 22.2584 1.4652 22.2556C0.975481 22.2546 0.486243 22.2242 0 22.1645C2.81477 24.017 6.08991 24.9996 9.43441 24.9951" fill="#1DA1F2"/>
</svg>
