<svg width="73" height="69" viewBox="0 0 73 69" fill="none" xmlns="http://www.w3.org/2000/svg">
<path id="Vector" d="M36.5 14.197C31.5954 8.88807 24.0348 3.57913 5.29697 3.18954C4.06621 3.16398 3.0625 4.01419 3.0625 5.06122C3.0625 12.8284 3.0625 42.2338 3.0625 50.9303C3.0625 51.9772 4.06629 52.7996 5.29675 52.8338C24.0347 53.3547 31.5954 60.4201 36.5 65.7292M36.5 14.197C41.4046 8.88807 48.9651 3.57913 67.703 3.18954C68.9339 3.16398 69.9375 3.99508 69.9375 5.04211C69.9375 13.7245 69.9375 42.2451 69.9375 50.9277C69.9375 51.9746 68.9339 52.7996 67.7034 52.8338C48.9655 53.3547 41.4046 60.4201 36.5 65.7292M36.5 14.197V65.7292" stroke="#15A950" stroke-width="5" stroke-linejoin="round"/>
</svg>
