<svg width="11" height="11" viewBox="0 0 11 11" fill="none" xmlns="http://www.w3.org/2000/svg">
<g id="WA_Logo">
<g id="Group">
<path id="Vector" fill-rule="evenodd" clip-rule="evenodd" d="M8.67434 2.38564C7.73832 1.44852 6.49354 0.932213 5.16733 0.931641C2.43468 0.931641 0.210613 3.15557 0.209516 5.88907C0.209182 6.76284 0.437427 7.61572 0.871308 8.36762L0.167969 10.9367L2.79615 10.2472C3.52029 10.6422 4.33558 10.8504 5.16532 10.8507H5.16738C7.89974 10.8507 10.124 8.62649 10.1251 5.89293C10.1256 4.5683 9.61036 3.32271 8.67434 2.38564ZM5.16738 10.0134H5.16571C4.42631 10.0131 3.70107 9.81446 3.06843 9.43901L2.91793 9.34977L1.35833 9.75884L1.77461 8.23826L1.67663 8.08228C1.26417 7.42626 1.04627 6.66797 1.04661 5.88931C1.04751 3.61735 2.89604 1.76897 5.16905 1.76897C6.26963 1.76935 7.3043 2.19851 8.08229 2.97745C8.86028 3.75635 9.28843 4.79163 9.288 5.8927C9.2871 8.16485 7.43857 10.0134 5.16738 10.0134ZM7.42765 6.92717C7.30377 6.86521 6.69478 6.56551 6.58121 6.52415C6.46768 6.48289 6.38507 6.46219 6.3025 6.58621C6.21993 6.71023 5.98248 6.98923 5.91021 7.07194C5.83794 7.15456 5.76568 7.16496 5.64185 7.1029C5.51792 7.04093 5.11882 6.91009 4.64563 6.48804C4.27739 6.15958 4.02877 5.75394 3.95651 5.62987C3.88424 5.50585 3.94878 5.43883 4.01084 5.37706C4.06655 5.32153 4.13472 5.23234 4.19668 5.16002C4.25864 5.08771 4.27925 5.036 4.32056 4.95334C4.36186 4.87067 4.34121 4.79831 4.3102 4.73635C4.27925 4.67429 4.03149 4.06454 3.92827 3.8165C3.82772 3.57499 3.72559 3.60767 3.64956 3.60385C3.57739 3.60027 3.49472 3.59946 3.41211 3.59946C3.32954 3.59946 3.19536 3.63047 3.08178 3.75449C2.96825 3.87851 2.64823 4.17821 2.64823 4.78796C2.64823 5.39771 3.09208 5.98671 3.15405 6.06943C3.21596 6.15209 4.02758 7.40331 5.27022 7.93994C5.56572 8.06759 5.79649 8.14376 5.97642 8.20091C6.27321 8.29521 6.54324 8.28185 6.75665 8.24999C6.99467 8.21441 7.48956 7.95029 7.59279 7.66094C7.69601 7.37154 7.69601 7.1235 7.66505 7.07184C7.63409 7.02023 7.55153 6.98923 7.42765 6.92717Z" fill="white"/>
</g>
</g>
</svg>
