<svg width="27" height="26" viewBox="0 0 27 26" fill="none" xmlns="http://www.w3.org/2000/svg">
<g id="YouTube logo" clip-path="url(#clip0_159_79)">
<path id="Vector" d="M22.95 0H4.05C1.81325 0 0 1.74609 0 3.9V22.1C0 24.2539 1.81325 26 4.05 26H22.95C25.1868 26 27 24.2539 27 22.1V3.9C27 1.74609 25.1868 0 22.95 0Z" fill="#ED1D24"/>
<path id="Vector_2" d="M22.5176 8.58204C22.3067 7.82032 21.6211 7.21094 20.8301 7.00782C19.0371 6.55079 8.22658 6.50001 6.16994 7.00782C5.37892 7.21094 4.69338 7.82032 4.48244 8.58204C4.00783 10.5117 3.95509 15.4375 4.48244 17.418C4.69338 18.1797 5.37892 18.7891 6.16994 18.9922C8.06838 19.5 18.8789 19.5 20.8301 18.9922C21.6211 18.7891 22.3067 18.1797 22.5176 17.418C22.9922 15.5898 22.9922 10.4609 22.5176 8.58204Z" fill="white"/>
<path id="Vector_3" d="M11.6016 10.3086V15.6914L16.5059 13" fill="#ED1D24"/>
</g>
<defs>
<clipPath id="clip0_159_79">
<rect width="27" height="26" fill="white"/>
</clipPath>
</defs>
</svg>
